<svg width="16" height="16" viewBox="0 0 16 16" fill="none" xmlns="http://www.w3.org/2000/svg">
<g id="Phosphor Icons / IdentificationCard">
<path id="Vector" d="M9.5 7H12" stroke="#2D2D31" stroke-linecap="round" stroke-linejoin="round"/>
<path id="Vector_2" d="M9.5 9H12" stroke="#2D2D31" stroke-linecap="round" stroke-linejoin="round"/>
<path id="Vector_3" d="M5.75626 9C6.58468 9 7.25626 8.32843 7.25626 7.5C7.25626 6.67157 6.58468 6 5.75626 6C4.92783 6 4.25626 6.67157 4.25626 7.5C4.25626 8.32843 4.92783 9 5.75626 9Z" stroke="#2D2D31" stroke-linecap="round" stroke-linejoin="round"/>
<path id="Vector_4" d="M3.81876 10.5C3.92891 10.0698 4.17911 9.6885 4.52991 9.4162C4.88072 9.1439 5.31217 8.99609 5.75626 8.99609C6.20034 8.99609 6.6318 9.1439 6.9826 9.4162C7.33341 9.6885 7.58361 10.0698 7.69376 10.5" stroke="#2D2D31" stroke-linecap="round" stroke-linejoin="round"/>
<path id="Vector_5" d="M13.5 3H2.5C2.22386 3 2 3.22386 2 3.5V12.5C2 12.7761 2.22386 13 2.5 13H13.5C13.7761 13 14 12.7761 14 12.5V3.5C14 3.22386 13.7761 3 13.5 3Z" stroke="#2D2D31" stroke-linecap="round" stroke-linejoin="round"/>
</g>
</svg>
