<svg width="16" height="16" viewBox="0 0 16 16" fill="none" xmlns="http://www.w3.org/2000/svg">
<path d="M8 8L14 2" stroke="#E7682A" stroke-linecap="round" stroke-linejoin="round"/>
<path d="M12.2438 3.75624C11.1801 2.68934 9.75457 2.06065 8.24945 1.99461C6.74433 1.92858 5.26926 2.43 4.1162 3.39965C2.96314 4.36929 2.21612 5.73649 2.02301 7.23063C1.82989 8.72477 2.20474 10.237 3.07337 11.4679C3.942 12.6989 5.24111 13.5589 6.71356 13.8777C8.18601 14.1965 9.72449 13.9509 11.0245 13.1895C12.3245 12.4281 13.2913 11.2064 13.7335 9.7662C14.1758 8.326 14.0612 6.77225 13.4125 5.41249" stroke="#E7682A" stroke-linecap="round" stroke-linejoin="round"/>
<path d="M10.1188 5.88124C9.62327 5.38715 8.97037 5.08222 8.27346 5.01944C7.57654 4.95665 6.87965 5.13997 6.30383 5.53754C5.72802 5.93512 5.30966 6.52184 5.12143 7.19578C4.9332 7.86973 4.98699 8.58831 5.27346 9.22673C5.55992 9.86514 6.06097 10.383 6.68955 10.6905C7.31814 10.9979 8.03456 11.0754 8.71436 10.9096C9.39416 10.7437 9.99439 10.345 10.4108 9.78265C10.8272 9.2203 11.0335 8.52985 10.9938 7.83124" stroke="#E7682A" stroke-linecap="round" stroke-linejoin="round"/>
</svg>
